<svg width="80" height="80" viewBox="0 0 80 80" fill="none" xmlns="http://www.w3.org/2000/svg">
<path d="M77.5004 38.7498C77.4971 35.4383 76.5561 32.1954 74.7864 29.3965C73.0167 26.5976 70.4906 24.357 67.5004 22.9341V22.4998C67.4975 19.2786 66.4578 16.1439 64.535 13.5595C62.6122 10.9751 59.9086 9.07834 56.8241 8.14984C53.7396 7.22134 50.4382 7.31044 47.4083 8.40396C44.3784 9.49747 41.781 11.5373 40.0004 14.2216C38.2198 11.5373 35.6224 9.49747 32.5925 8.40396C29.5626 7.31044 26.2612 7.22134 23.1767 8.14984C20.0922 9.07834 17.3886 10.9751 15.4658 13.5595C13.543 16.1439 12.5033 19.2786 12.5004 22.4998V22.9341C9.50769 24.3531 6.97913 26.5923 5.20854 29.3914C3.43795 32.1905 2.49805 35.4346 2.49805 38.7466C2.49805 42.0587 3.43795 45.3028 5.20854 48.1019C6.97913 50.901 9.50769 53.1401 12.5004 54.5591V54.9998C12.5033 58.2209 13.543 61.3556 15.4658 63.94C17.3886 66.5244 20.0922 68.4212 23.1767 69.3497C26.2612 70.2782 29.5626 70.1891 32.5925 69.0956C35.6224 68.002 38.2198 65.9622 40.0004 63.2779C41.781 65.9622 44.3784 68.002 47.4083 69.0956C50.4382 70.1891 53.7396 70.2782 56.8241 69.3497C59.9086 68.4212 62.6122 66.5244 64.535 63.94C66.4578 61.3556 67.4975 58.2209 67.5004 54.9998V54.5591C70.4901 53.1373 73.016 50.8978 74.7857 48.1C76.5555 45.3021 77.4967 42.0603 77.5004 38.7498ZM27.5004 64.9998C25.0346 64.9994 22.6559 64.088 20.8211 62.4407C18.9863 60.7934 17.8248 58.5263 17.5598 56.0748C18.3682 56.1901 19.1838 56.2486 20.0004 56.2498H22.5004C23.1634 56.2498 23.7993 55.9864 24.2682 55.5175C24.737 55.0487 25.0004 54.4128 25.0004 53.7498C25.0004 53.0867 24.737 52.4508 24.2682 51.982C23.7993 51.5131 23.1634 51.2498 22.5004 51.2498H20.0004C17.049 51.2532 14.1916 50.2122 11.9341 48.3111C9.67653 46.4101 8.16449 43.7715 7.66564 40.8626C7.16678 37.9536 7.7133 34.962 9.20844 32.4174C10.7036 29.8728 13.0509 27.9392 15.8348 26.9591C16.3219 26.7867 16.7436 26.4675 17.0418 26.0456C17.3401 25.6236 17.5003 25.1196 17.5004 24.6029V22.4998C17.5004 19.8476 18.554 17.3041 20.4293 15.4287C22.3047 13.5533 24.8482 12.4998 27.5004 12.4998C30.1526 12.4998 32.6961 13.5533 34.5715 15.4287C36.4468 17.3041 37.5004 19.8476 37.5004 22.4998V43.831C34.7551 41.3619 31.1927 39.997 27.5004 39.9998C26.8374 39.9998 26.2015 40.2631 25.7326 40.732C25.2638 41.2008 25.0004 41.8367 25.0004 42.4998C25.0004 43.1628 25.2638 43.7987 25.7326 44.2675C26.2015 44.7364 26.8374 44.9998 27.5004 44.9998C30.1526 44.9998 32.6961 46.0533 34.5715 47.9287C36.4468 49.8041 37.5004 52.3476 37.5004 54.9998C37.5004 57.6519 36.4468 60.1955 34.5715 62.0708C32.6961 63.9462 30.1526 64.9998 27.5004 64.9998ZM60.0004 51.2498H57.5004C56.8374 51.2498 56.2015 51.5131 55.7326 51.982C55.2638 52.4508 55.0004 53.0867 55.0004 53.7498C55.0004 54.4128 55.2638 55.0487 55.7326 55.5175C56.2015 55.9864 56.8374 56.2498 57.5004 56.2498H60.0004C60.817 56.2486 61.6326 56.1901 62.441 56.0748C62.2333 57.9956 61.4737 59.8151 60.2538 61.3134C59.034 62.8117 57.4063 63.9245 55.5675 64.5173C53.7287 65.1102 51.7575 65.1577 49.8922 64.654C48.027 64.1504 46.3476 63.1172 45.0571 61.6794C43.7665 60.2416 42.9201 58.4608 42.6202 56.5522C42.3203 54.6435 42.5797 52.6889 43.367 50.9246C44.1543 49.1603 45.4359 47.6618 47.0568 46.6103C48.6776 45.5589 50.5684 44.9995 52.5004 44.9998C53.1634 44.9998 53.7993 44.7364 54.2682 44.2675C54.737 43.7987 55.0004 43.1628 55.0004 42.4998C55.0004 41.8367 54.737 41.2008 54.2682 40.732C53.7993 40.2631 53.1634 39.9998 52.5004 39.9998C48.8081 39.997 45.2457 41.3619 42.5004 43.831V22.4998C42.5004 19.8476 43.554 17.3041 45.4293 15.4287C47.3047 13.5533 49.8482 12.4998 52.5004 12.4998C55.1526 12.4998 57.6961 13.5533 59.5715 15.4287C61.4468 17.3041 62.5004 19.8476 62.5004 22.4998V24.6029C62.5005 25.1196 62.6607 25.6236 62.959 26.0456C63.2572 26.4675 63.6789 26.7867 64.166 26.9591C66.9499 27.9392 69.2972 29.8728 70.7923 32.4174C72.2875 34.962 72.834 37.9536 72.3352 40.8626C71.8363 43.7715 70.3243 46.4101 68.0667 48.3111C65.8092 50.2122 62.9518 51.2532 60.0004 51.2498ZM65.0004 34.9998C65.0004 35.6628 64.737 36.2987 64.2682 36.7675C63.7993 37.2364 63.1634 37.4998 62.5004 37.4998H61.2504C58.2667 37.4998 55.4052 36.3145 53.2954 34.2047C51.1857 32.0949 50.0004 29.2334 50.0004 26.2498V24.9998C50.0004 24.3367 50.2638 23.7008 50.7326 23.232C51.2015 22.7631 51.8374 22.4998 52.5004 22.4998C53.1634 22.4998 53.7993 22.7631 54.2682 23.232C54.737 23.7008 55.0004 24.3367 55.0004 24.9998V26.2498C55.0004 27.9074 55.6589 29.4971 56.831 30.6692C58.0031 31.8413 59.5928 32.4998 61.2504 32.4998H62.5004C63.1634 32.4998 63.7993 32.7631 64.2682 33.232C64.737 33.7008 65.0004 34.3367 65.0004 34.9998ZM18.7504 37.4998H17.5004C16.8374 37.4998 16.2015 37.2364 15.7326 36.7675C15.2638 36.2987 15.0004 35.6628 15.0004 34.9998C15.0004 34.3367 15.2638 33.7008 15.7326 33.232C16.2015 32.7631 16.8374 32.4998 17.5004 32.4998H18.7504C20.408 32.4998 21.9977 31.8413 23.1698 30.6692C24.3419 29.4971 25.0004 27.9074 25.0004 26.2498V24.9998C25.0004 24.3367 25.2638 23.7008 25.7326 23.232C26.2015 22.7631 26.8374 22.4998 27.5004 22.4998C28.1634 22.4998 28.7993 22.7631 29.2682 23.232C29.737 23.7008 30.0004 24.3367 30.0004 24.9998V26.2498C30.0004 29.2334 28.8151 32.0949 26.7053 34.2047C24.5956 36.3145 21.7341 37.4998 18.7504 37.4998Z" fill="black"/>
</svg>
