<svg width="80" height="80" viewBox="0 0 80 80" fill="none" xmlns="http://www.w3.org/2000/svg">
<path d="M72.5215 58.3625C74.2489 54.7796 75.0965 50.8363 74.9939 46.8601C74.8912 42.8838 73.8413 38.9895 71.9313 35.5005C70.0214 32.0115 67.3065 29.0286 64.0122 26.7996C60.7179 24.5706 56.9393 23.1598 52.9902 22.6844C51.6762 19.6293 49.7659 16.867 47.371 14.5594C44.9762 12.2519 42.145 10.4453 39.0432 9.24551C35.9415 8.04574 32.6315 7.4769 29.3072 7.5723C25.9829 7.6677 22.711 8.42542 19.6831 9.80108C16.6553 11.1768 13.9324 13.1427 11.6738 15.5839C9.41522 18.025 7.66641 20.8922 6.52977 24.0177C5.39313 27.1431 4.89151 30.4639 5.05428 33.7856C5.21705 37.1073 6.04095 40.3632 7.47772 43.3625L5.20584 51.0844C4.95183 51.9464 4.93484 52.861 5.15667 53.7319C5.37851 54.6027 5.83096 55.3977 6.46642 56.0332C7.10188 56.6686 7.89687 57.1211 8.76774 57.3429C9.63862 57.5648 10.5532 57.5478 11.4152 57.2938L19.1371 55.0219C21.6166 56.2132 24.2749 56.9891 27.0058 57.3188C28.3327 60.4275 30.2761 63.2349 32.7187 65.5713C35.1612 67.9077 38.0522 69.7245 41.2169 70.9119C44.3815 72.0993 47.7541 72.6326 51.1307 72.4796C54.5073 72.3267 57.8178 71.4906 60.8621 70.0219L68.584 72.2938C69.4457 72.5475 70.3598 72.5644 71.2303 72.3427C72.1008 72.1209 72.8955 71.6688 73.5309 71.0338C74.1662 70.3987 74.6188 69.6043 74.8409 68.7339C75.0631 67.8635 75.0466 66.9493 74.7933 66.0875L72.5215 58.3625ZM19.3746 49.8438C19.1357 49.8443 18.898 49.878 18.6683 49.9438L9.99959 52.5L12.5527 43.825C12.7343 43.1983 12.6636 42.5254 12.3558 41.95C10.0943 37.7206 9.42795 32.8193 10.4782 28.1396C11.5285 23.4599 14.2255 19.3134 18.0775 16.4561C21.9296 13.5988 26.6802 12.2208 31.4633 12.5734C36.2464 12.9261 40.7436 14.9858 44.1349 18.3772C47.5263 21.7685 49.586 26.2657 49.9387 31.0488C50.2913 35.8319 48.9133 40.5825 46.056 44.4346C43.1987 48.2866 39.0522 50.9836 34.3725 52.0339C29.6928 53.0841 24.7915 52.4178 20.5621 50.1563C20.1984 49.955 19.7902 49.8476 19.3746 49.8438ZM67.434 58.8219L69.9996 67.5L61.3246 64.9469C60.6979 64.7653 60.025 64.836 59.4496 65.1438C54.8459 67.602 49.4642 68.1649 44.4515 66.7125C39.4388 65.2601 35.1916 61.9073 32.6152 57.3688C36.0383 57.0115 39.3506 55.9507 42.3443 54.2529C45.338 52.5551 47.9486 50.2569 50.0122 47.5026C52.0758 44.7482 53.548 41.5971 54.3363 38.247C55.1247 34.8969 55.2122 31.4199 54.5933 28.0344C57.5758 28.7374 60.3569 30.1163 62.7218 32.0647C65.0868 34.0131 66.9725 36.4788 68.2333 39.2716C69.4941 42.0644 70.0963 45.1096 69.9935 48.1721C69.8907 51.2345 69.0855 54.2324 67.6402 56.9344C67.3291 57.5132 67.2583 58.1913 67.4433 58.8219H67.434Z" fill="black"/>
</svg>
