<svg width="80" height="80" viewBox="0 0 80 80" fill="none" xmlns="http://www.w3.org/2000/svg">
<path d="M62.5001 63.9062V72.5C62.5001 73.163 62.2367 73.7989 61.7679 74.2678C61.2991 74.7366 60.6632 75 60.0001 75C59.3371 75 58.7012 74.7366 58.2324 74.2678C57.7635 73.7989 57.5001 73.163 57.5001 72.5V63.9062C57.5124 60.1891 56.4831 56.5428 54.529 53.3808C52.5749 50.2187 49.774 47.6672 46.4439 46.0156L31.3189 38.4562C27.1565 36.3918 23.6557 33.2026 21.2133 29.2501C18.7709 25.2976 17.4845 20.74 17.5001 16.0938V7.5C17.5001 6.83696 17.7635 6.20107 18.2324 5.73223C18.7012 5.26339 19.3371 5 20.0001 5C20.6632 5 21.2991 5.26339 21.7679 5.73223C22.2367 6.20107 22.5001 6.83696 22.5001 7.5V16.0938C22.4879 19.8109 23.5172 23.4572 25.4713 26.6193C27.4254 29.7813 30.2263 32.3328 33.5564 33.9844L48.6814 41.5438C52.8438 43.6082 56.3446 46.7974 58.787 50.7499C61.2294 54.7024 62.5157 59.26 62.5001 63.9062ZM50.0001 62.5H22.5533C22.6735 60.7969 23.0128 59.1164 23.5626 57.5H46.2845C46.9476 57.5 47.5834 57.2366 48.0523 56.7678C48.5211 56.2989 48.7845 55.663 48.7845 55C48.7845 54.337 48.5211 53.7011 48.0523 53.2322C47.5834 52.7634 46.9476 52.5 46.2845 52.5H26.0814C27.3359 50.6865 28.883 49.094 30.6595 47.7875C30.9246 47.5932 31.1489 47.3486 31.3194 47.0676C31.49 46.7866 31.6035 46.4748 31.6536 46.1499C31.7037 45.8251 31.6892 45.4935 31.6112 45.1742C31.5331 44.855 31.3929 44.5542 31.1986 44.2891C31.0043 44.024 30.7596 43.7997 30.4787 43.6292C30.1977 43.4586 29.8859 43.345 29.561 43.295C29.2361 43.2449 28.9046 43.2593 28.5853 43.3374C28.266 43.4155 27.9652 43.5557 27.7001 43.75C24.5421 46.078 21.9742 49.1143 20.2027 52.6149C18.4313 56.1156 17.5056 59.9829 17.5001 63.9062V72.5C17.5001 73.163 17.7635 73.7989 18.2324 74.2678C18.7012 74.7366 19.3371 75 20.0001 75C20.6632 75 21.2991 74.7366 21.7679 74.2678C22.2367 73.7989 22.5001 73.163 22.5001 72.5V67.5H50.0001C50.6632 67.5 51.2991 67.2366 51.7679 66.7678C52.2367 66.2989 52.5001 65.663 52.5001 65C52.5001 64.337 52.2367 63.7011 51.7679 63.2322C51.2991 62.7634 50.6632 62.5 50.0001 62.5ZM60.0001 5C59.3371 5 58.7012 5.26339 58.2324 5.73223C57.7635 6.20107 57.5001 6.83696 57.5001 7.5V12.5H30.0001C29.3371 12.5 28.7012 12.7634 28.2324 13.2322C27.7635 13.7011 27.5001 14.337 27.5001 15C27.5001 15.663 27.7635 16.2989 28.2324 16.7678C28.7012 17.2366 29.3371 17.5 30.0001 17.5H57.447C57.3267 19.2031 56.9875 20.8836 56.4376 22.5H33.7158C33.0527 22.5 32.4168 22.7634 31.948 23.2322C31.4792 23.7011 31.2158 24.337 31.2158 25C31.2158 25.663 31.4792 26.2989 31.948 26.7678C32.4168 27.2366 33.0527 27.5 33.7158 27.5H53.9189C52.6644 29.3135 51.1173 30.906 49.3408 32.2125C49.0761 32.4068 48.8522 32.6514 48.6821 32.9322C48.5119 33.213 48.3987 33.5246 48.3489 33.8492C48.2991 34.1737 48.3138 34.5049 48.392 34.8238C48.4702 35.1427 48.6105 35.4431 48.8048 35.7078C49.1973 36.2424 49.786 36.5992 50.4415 36.6997C50.7661 36.7495 51.0972 36.7348 51.4162 36.6566C51.7351 36.5783 52.0354 36.4381 52.3001 36.2438C55.4573 33.9164 58.0247 30.8811 59.7961 27.3816C61.5676 23.8821 62.4937 20.016 62.5001 16.0938V7.5C62.5001 6.83696 62.2367 6.20107 61.7679 5.73223C61.2991 5.26339 60.6632 5 60.0001 5Z" fill="black"/>
</svg>
