<svg width="224" height="174" viewBox="0 0 224 174" fill="none" xmlns="http://www.w3.org/2000/svg">
<path d="M0.00452525 112.191C0.00452525 65.6036 41.7681 21.8633 86.3735 0H101.556C56.9458 26.6231 42.7048 76.0615 42.7048 87.476C48.4021 86.524 54.0994 86.524 54.0994 86.524C78.7801 86.524 99.6596 106.488 99.6596 131.212C99.6596 155.935 78.7801 174 54.0994 174C24.6762 174 0 148.329 0 112.195L0.00452525 112.191ZM122.44 112.191C122.44 65.6036 164.203 21.8633 208.818 0H224C179.39 26.6231 165.149 76.0615 165.149 87.476C170.846 86.524 176.544 86.524 176.544 86.524C201.215 86.524 222.104 106.488 222.104 131.212C222.104 155.935 201.215 174 176.544 174C147.12 174 122.44 148.329 122.44 112.195V112.191Z" fill="#C9E7A0"/>
</svg>
