<svg width="48" height="48" viewBox="0 0 48 48" fill="none" xmlns="http://www.w3.org/2000/svg">
<path d="M46.0928 22.8056C45.9015 22.4695 45.6451 22.1748 45.3386 21.9388C45.0322 21.7028 44.6817 21.5303 44.3078 21.4313C42.9514 21.0821 41.5497 20.9417 40.151 21.015C40.901 17.2931 40.3385 14.3494 39.7647 12.6038C39.536 11.8867 39.0485 11.2805 38.3971 10.9033C37.7458 10.5262 36.9773 10.4051 36.2416 10.5638C34.3336 10.9887 32.5194 11.7588 30.8885 12.8362C29.694 10.3962 27.9549 8.26321 25.8053 6.60187C25.2844 6.21119 24.6509 6 23.9997 6C23.3486 6 22.715 6.21119 22.1941 6.60187C20.0441 8.26273 18.3049 10.3958 17.111 12.8362C15.48 11.7588 13.6658 10.9887 11.7578 10.5638C11.0221 10.4051 10.2536 10.5262 9.6023 10.9033C8.95096 11.2805 8.46341 11.8867 8.23471 12.6038C7.67221 14.3494 7.10971 17.2913 7.84846 21.015C6.44974 20.9417 5.04802 21.0821 3.69159 21.4313C3.31769 21.5303 2.96727 21.7028 2.66079 21.9388C2.35432 22.1748 2.09792 22.4695 1.90659 22.8056C1.70635 23.15 1.57669 23.5308 1.52519 23.9258C1.47368 24.3208 1.50135 24.7221 1.60659 25.1062C2.24221 27.4631 4.19409 31.9463 10.106 35.4788C16.0178 39.0112 21.2116 39 24.0091 39C26.8066 39 32.0097 39 37.8841 35.4788C43.796 31.9463 45.7478 27.4631 46.3835 25.1062C46.4901 24.7227 46.5193 24.3217 46.4694 23.9267C46.4195 23.5317 46.2915 23.1506 46.0928 22.8056ZM11.0885 13.5262C11.0907 13.5169 11.0964 13.5088 11.1044 13.5036C11.1125 13.4984 11.1222 13.4964 11.1316 13.4981C12.8763 13.8922 14.5227 14.6367 15.971 15.6863C15.3115 17.8435 14.984 20.0886 14.9997 22.3444C14.9997 25.8581 15.7066 28.7194 16.7078 31.0219C15.2844 29.5972 14.0528 27.9931 13.0441 26.25C9.66534 20.3663 10.3685 15.75 11.0885 13.5262ZM11.651 32.9044C6.65034 29.9194 5.02846 26.2594 4.49971 24.3187C5.87937 23.9791 7.31101 23.9046 8.71846 24.0994C9.18834 25.358 9.76219 26.5753 10.4341 27.7388C12.0838 30.583 14.2451 33.0977 16.8091 35.1562C14.9961 34.635 13.2593 33.8779 11.6435 32.9044H11.651ZM23.9997 35.7C22.2503 34.3987 17.9997 30.4069 17.9997 22.3444C17.9997 14.3812 22.196 10.3575 23.9997 9C25.8035 10.3612 29.9997 14.385 29.9997 22.3481C29.9997 30.4069 25.7491 34.3987 23.9997 35.7ZM32.0285 15.6863C33.4769 14.6373 35.1233 13.8935 36.8678 13.5C36.8773 13.4983 36.887 13.5003 36.895 13.5055C36.903 13.5107 36.9087 13.5188 36.911 13.5281C37.631 15.75 38.3341 20.3663 34.9553 26.25C33.9475 27.9954 32.7158 29.6015 31.2916 31.0275C32.2928 28.7287 32.9997 25.8637 32.9997 22.35C33.016 20.0923 32.6885 17.8453 32.0285 15.6863ZM43.4997 24.3225C42.9803 26.2444 41.3622 29.9119 36.3578 32.9044C34.7419 33.8772 33.0051 34.6337 31.1922 35.1544C33.7562 33.0959 35.9175 30.5811 37.5672 27.7369C38.2391 26.5735 38.813 25.3561 39.2828 24.0975C40.6899 23.9036 42.121 23.9793 43.4997 24.3206V24.3225Z" fill="black"/>
</svg>
