<svg width="36" height="24" viewBox="0 0 36 24" fill="none" xmlns="http://www.w3.org/2000/svg">
<path d="M17.0138 12.2216C17.0138 12.2216 16.153 12.123 15.6163 12.2216C15.0795 12.3201 13.9082 13.3085 13.9082 13.3085" stroke="black" stroke-width="2" stroke-linecap="round"/>
<path d="M19.1875 11.9111C19.1875 11.9111 19.488 12.2278 19.8086 12.377C20.1292 12.5261 20.8956 12.6875 20.8956 12.6875" stroke="black" stroke-width="2" stroke-linecap="round"/>
<path d="M13.4425 6.0107C13.4425 6.0107 9.40526 6.0107 9.8711 10.5138C5.36803 9.89266 5.36804 14.7063 5.36804 14.7063M8.62887 19.9857C8.62887 19.9857 -1.62031 21.228 1.64063 12.6877C0.708957 8.65048 3.81486 6.32126 5.98915 6.0107C8.31792 1.8182 11.1129 2.90514 12.3555 3.06042C16.2371 -0.821513 19.1878 1.97347 19.1878 1.97347M13.9075 18.1224C13.9075 18.1224 15.0542 18.855 16.0814 18.6585C17.0826 18.4669 17.4789 17.8113 19.3422 17.501C20.4824 17.4224 22.4478 18.1224 23.69 17.3457C26.1356 16.2517 25.8639 13.7747 25.8639 13.7747M25.0875 16.4144C25.0875 16.4144 26.2127 16.4359 26.485 16.5694C26.7573 16.7028 27.1061 17.0355 27.1061 17.0355M13.9075 13.3088C13.9075 13.3088 12.8205 9.11601 17.6342 6.63186C16.3919 3.06012 23.5347 -2.37427 27.2614 5.07908C28.9695 5.23406 33.0067 6.0107 32.3856 11.6008C32.8514 11.911 36.5781 15.793 31.2986 18.7436C31.2986 19.9857 27.8825 25.1096 23.0689 21.383C21.8267 22.3146 19.8081 23.4016 17.6342 22.0044C5.98915 25.886 8.31748 15.793 10.4914 15.3274C11.1594 14.9498 11.69 15.0882 12.3555 14.7063C13.0211 14.3243 13.9075 13.3088 13.9075 13.3088Z" stroke="black" stroke-width="2" stroke-linecap="round"/>
<path d="M21.0508 14.0856C21.0508 14.0856 21.2827 13.3968 21.5166 12.9986C21.78 10.8251 23.1358 9.8804 24.3116 9.64358M28.97 11.7564C28.97 11.7564 28.155 11.8895 27.883 11.2906C27.4359 10.306 25.9086 9.32195 24.3116 9.64358M23.8458 6.78613C23.8458 6.78613 23.38 7.56252 23.5352 8.33891C23.6905 9.1153 24.3116 9.64358 24.3116 9.64358" stroke="black" stroke-width="2" stroke-linecap="round"/>
</svg>
