<?xml version="1.0" encoding="UTF-8"?>
<svg id="Layer_1" data-name="Layer 1" xmlns="http://www.w3.org/2000/svg" viewBox="0 0 360 409.22">
  <defs>
    <style>
      .cls-1 {
        fill: #006e8a;
      }
    </style>
  </defs>
  <path class="cls-1" d="M182.49,403.76c-8.32-4.74-12.39-10.16-14.82-13.63-13.09-18.7-24.23-51.43-40.13-96.66-8.23-1.98-16.3-4.6-24.16-7.86C51.24,264.03,14.34,218.63.77,164.2c-2.06-8.28-.69-23.66,12.81-37.95,11.35-12.02,22.79-14.91,31.02-12.02,11.9,4.18,15.54,18.55,19.92,30.03,9.83,25.8,20.98,42.13,38.25,57.76-6.15-34.98-7.66-69.65-.63-99.91C115.2,45.81,157.98,7,213.77.82c56.04-6.2,108.3,23.03,133.05,74.47,31.07,64.55,5.45,145.88-58.31,185.15-28.06,17.28-56.51,28.69-84.31,34.08,13.4,37,20.92,50.47,31.58,73.1,1.45,3.09,2.71,5.64,3.59,7.67,7.78,17.8-1.37,26.39-9.74,29.08-25.28,8.11-37.79,4.71-47.14-.62ZM228.22,71.23c-2.26,0-4.48.13-6.62.36-25.25,2.79-43.98,20.22-50.11,46.62-6.69,28.83-1.48,67.24,9.73,108.05,21.99-2.57,45.56-11.43,69.94-26.45,36.48-22.47,44.74-66.1,31.49-93.64-12.46-25.89-35.19-34.93-54.44-34.93Z"/>
</svg>