<?xml version="1.0" encoding="UTF-8"?>
<svg id="Layer_1" data-name="Layer 1" xmlns="http://www.w3.org/2000/svg" viewBox="0 0 364.94 162.6">
  <defs>
    <style>
      .cls-1, .cls-2 {
        fill: #006e8a;
      }

      .cls-2 {
        font-family: Interstate-Bold, Interstate;
        font-size: 29.34px;
        font-weight: 700;
      }

      .cls-3 {
        letter-spacing: -.12em;
      }

      .cls-4 {
        letter-spacing: -.02em;
      }

      .cls-5 {
        letter-spacing: -.01em;
      }

      .cls-6 {
        letter-spacing: -.03em;
      }

      .cls-7 {
        letter-spacing: -.01em;
      }

      .cls-8 {
        letter-spacing: 0em;
      }
    </style>
  </defs>
  <text class="cls-2" transform="translate(0 154.92)"><tspan class="cls-7" x="0" y="0">PRI</tspan><tspan class="cls-4" x="50" y="0">MA</tspan><tspan class="cls-6" x="95.34" y="0">R</tspan><tspan x="115.41" y="0">Y </tspan><tspan class="cls-8" x="144.87" y="0">B</tspan><tspan class="cls-5" x="165.41" y="0">R</tspan><tspan class="cls-4" x="185.92" y="0">A</tspan><tspan class="cls-7" x="207.34" y="0">I</tspan><tspan x="217.02" y="0">N </tspan><tspan class="cls-7" x="247.45" y="0">H</tspan><tspan x="269.08" y="0">E</tspan><tspan class="cls-8" x="288.15" y="0">A</tspan><tspan class="cls-3" x="309.86" y="0">L</tspan><tspan x="324.48" y="0">TH</tspan></text>
  <path class="cls-1" d="M183.15,110.92c-2.29-1.3-3.4-2.79-4.07-3.74-3.6-5.14-6.66-14.13-11.02-26.55-2.26-.54-4.48-1.26-6.64-2.16-14.32-5.93-24.46-18.4-28.19-33.35-.57-2.27-.19-6.5,3.52-10.43,3.12-3.3,6.26-4.1,8.52-3.3,3.27,1.15,4.27,5.1,5.47,8.25,2.7,7.09,5.76,11.57,10.51,15.87-1.69-9.61-2.1-19.13-.17-27.45,3.59-15.47,15.34-26.13,30.67-27.83,15.4-1.7,29.75,6.33,36.55,20.46,8.53,17.73,1.5,40.07-16.02,50.86-7.71,4.75-15.52,7.88-23.16,9.36,3.68,10.16,5.75,13.87,8.68,20.08.4.85.74,1.55.99,2.11,2.14,4.89-.38,7.25-2.68,7.99-6.95,2.23-10.38,1.29-12.95-.17ZM195.72,19.57c-.62,0-1.23.03-1.82.1-6.94.77-12.08,5.55-13.76,12.81-1.84,7.92-.41,18.47,2.67,29.68,6.04-.71,12.52-3.14,19.21-7.27,10.02-6.17,12.29-18.16,8.65-25.72-3.42-7.11-9.67-9.6-14.95-9.6Z"/>
</svg>