<svg width="131" height="51" viewBox="0 0 131 51" fill="none" xmlns="http://www.w3.org/2000/svg">
<g clip-path="url(#clip0_111_132)">
<path d="M53.0737 13.2231V0.869447H57.9476C58.8846 0.869447 59.6829 1.0484 60.3424 1.4063C61.0019 1.76018 61.5045 2.2528 61.8504 2.88416C62.2002 3.5115 62.3752 4.23535 62.3752 5.05571C62.3752 5.87607 62.1982 6.59992 61.8444 7.22726C61.4905 7.85459 60.9777 8.34319 60.3062 8.69305C59.6386 9.04291 58.8303 9.21784 57.8813 9.21784H54.7748V7.12471H57.459C57.9617 7.12471 58.3759 7.03825 58.7016 6.86533C59.0314 6.68839 59.2767 6.4451 59.4376 6.13545C59.6024 5.82178 59.6849 5.46187 59.6849 5.05571C59.6849 4.64553 59.6024 4.28762 59.4376 3.982C59.2767 3.67235 59.0314 3.43308 58.7016 3.26418C58.3719 3.09126 57.9537 3.0048 57.447 3.0048H55.6856V13.2231H53.0737ZM64.0717 13.2231V0.869447H68.9456C69.8786 0.869447 70.6748 1.03633 71.3343 1.37011C71.9978 1.69986 72.5025 2.16835 72.8484 2.77558C73.1982 3.37879 73.3732 4.08857 73.3732 4.90491C73.3732 5.72527 73.1962 6.43102 72.8423 7.02217C72.4885 7.60929 71.9757 8.05968 71.3042 8.37335C70.6366 8.68702 69.8283 8.84386 68.8793 8.84386H65.6159V6.74469H68.457C68.9557 6.74469 69.3699 6.67633 69.6996 6.5396C70.0294 6.40287 70.2747 6.19778 70.4355 5.92433C70.6004 5.65087 70.6829 5.31107 70.6829 4.90491C70.6829 4.49473 70.6004 4.14889 70.4355 3.86739C70.2747 3.58589 70.0274 3.37276 69.6936 3.22799C69.3638 3.0792 68.9476 3.0048 68.445 3.0048H66.6836V13.2231H64.0717ZM70.7432 7.60125L73.8135 13.2231H70.9302L67.9262 7.60125H70.7432ZM77.8309 0.869447V13.2231H75.219V0.869447H77.8309ZM79.9798 0.869447H83.2009L86.603 9.16959H86.7478L90.1499 0.869447H93.371V13.2231H90.8375V5.18238H90.735L87.538 13.1628H85.8128L82.6158 5.15222H82.5133V13.2231H79.9798V0.869447ZM97.6523 13.2231H94.8534L99.1181 0.869447H102.484L106.743 13.2231H103.944L100.849 3.69246H100.753L97.6523 13.2231ZM97.4773 8.36732H104.089V10.4062H97.4773V8.36732ZM108.23 13.2231V0.869447H113.103C114.036 0.869447 114.833 1.03633 115.492 1.37011C116.156 1.69986 116.66 2.16835 117.006 2.77558C117.356 3.37879 117.531 4.08857 117.531 4.90491C117.531 5.72527 117.354 6.43102 117 7.02217C116.646 7.60929 116.134 8.05968 115.462 8.37335C114.794 8.68702 113.986 8.84386 113.037 8.84386H109.774V6.74469H112.615C113.114 6.74469 113.528 6.67633 113.857 6.5396C114.187 6.40287 114.433 6.19778 114.593 5.92433C114.758 5.65087 114.841 5.31107 114.841 4.90491C114.841 4.49473 114.758 4.14889 114.593 3.86739C114.433 3.58589 114.185 3.37276 113.851 3.22799C113.522 3.0792 113.105 3.0048 112.603 3.0048H110.841V13.2231H108.23ZM114.901 7.60125L117.971 13.2231H115.088L112.084 7.60125H114.901ZM118.139 0.869447H121.064L123.881 6.18974H124.002L126.819 0.869447H129.744L125.238 8.85592V13.2231H122.645V8.85592L118.139 0.869447Z" fill="#006E8A"/>
<path d="M53.0737 31.3306V18.9769H58.02C58.9288 18.9769 59.6869 19.1116 60.2941 19.381C60.9013 19.6505 61.3578 20.0244 61.6634 20.503C61.969 20.9775 62.1218 21.5244 62.1218 22.1437C62.1218 22.6263 62.0253 23.0505 61.8323 23.4165C61.6393 23.7784 61.3739 24.076 61.0361 24.3092C60.7023 24.5384 60.3202 24.7013 59.89 24.7978V24.9185C60.3605 24.9386 60.8008 25.0713 61.211 25.3166C61.6252 25.5619 61.961 25.9057 62.2183 26.3481C62.4757 26.7864 62.6044 27.3092 62.6044 27.9164C62.6044 28.5719 62.4415 29.157 62.1158 29.6717C61.7941 30.1825 61.3176 30.5866 60.6862 30.8842C60.0548 31.1818 59.2767 31.3306 58.3518 31.3306H53.0737ZM55.6856 29.1952H57.8149C58.5428 29.1952 59.0736 29.0565 59.4074 28.779C59.7412 28.4975 59.9081 28.1235 59.9081 27.657C59.9081 27.3152 59.8256 27.0136 59.6607 26.7522C59.4959 26.4908 59.2606 26.2857 58.955 26.1369C58.6534 25.9882 58.2935 25.9138 57.8752 25.9138H55.6856V29.1952ZM55.6856 24.1464H57.6219C57.9798 24.1464 58.2975 24.084 58.575 23.9594C58.8565 23.8307 59.0776 23.6497 59.2385 23.4165C59.4034 23.1832 59.4858 22.9038 59.4858 22.578C59.4858 22.1316 59.327 21.7717 59.0093 21.4983C58.6956 21.2248 58.2492 21.0881 57.6702 21.0881H55.6856V24.1464ZM64.3039 31.3306V18.9769H69.1779C70.1108 18.9769 70.907 19.1438 71.5666 19.4775C72.2301 19.8073 72.7348 20.2758 73.0806 20.883C73.4305 21.4862 73.6054 22.196 73.6054 23.0123C73.6054 23.8327 73.4285 24.5384 73.0746 25.1296C72.7207 25.7167 72.208 26.1671 71.5364 26.4808C70.8688 26.7944 70.0605 26.9513 69.1115 26.9513H65.8481V24.8521H68.6893C69.1879 24.8521 69.6021 24.7838 69.9319 24.647C70.2616 24.5103 70.5069 24.3052 70.6678 24.0318C70.8327 23.7583 70.9151 23.4185 70.9151 23.0123C70.9151 22.6021 70.8327 22.2563 70.6678 21.9748C70.5069 21.6933 70.2596 21.4802 69.9258 21.3354C69.5961 21.1866 69.1799 21.1122 68.6772 21.1122H66.9158V31.3306H64.3039ZM70.9754 25.7087L74.0457 31.3306H71.1624L68.1584 25.7087H70.9754ZM77.5805 31.3306H74.7817L79.0463 18.9769H82.4122L86.6709 31.3306H83.872L80.7775 21.7999H80.681L77.5805 31.3306ZM77.4056 26.4747H84.0168V28.5136H77.4056V26.4747ZM90.7697 18.9769V31.3306H88.1578V18.9769H90.7697ZM103.252 18.9769V31.3306H100.996L95.621 23.5552H95.5305V31.3306H92.9186V18.9769H95.2108L100.543 26.7462H100.652V18.9769H103.252Z" fill="#006E8A"/>
<path d="M53.0737 49.4409V37.0872H55.6856V42.1843H60.9878V37.0872H63.5937V49.4409H60.9878V44.3378H55.6856V49.4409H53.0737ZM65.7471 49.4409V37.0872H74.0714V39.2407H68.359V42.1843H73.6431V44.3378H68.359V47.2875H74.0955V49.4409H65.7471ZM78.2772 49.4409H75.4784L79.743 37.0872H83.1089L87.3676 49.4409H84.5687L81.4742 39.9102H81.3777L78.2772 49.4409ZM78.1023 44.5851H84.7135V46.6239H78.1023V44.5851ZM88.8545 49.4409V37.0872H91.4664V47.2875H96.7626V49.4409H88.8545ZM96.479 39.2407V37.0872H106.625V39.2407H102.843V49.4409H100.261V39.2407H96.479ZM108.296 49.4409V37.0872H110.908V42.1843H116.21V37.0872H118.816V49.4409H116.21V44.3378H110.908V49.4409H108.296Z" fill="#006E8A"/>
<path d="M22.5321 50.1113C21.5059 49.5254 21.0038 48.8559 20.7017 48.4301C19.0861 46.1231 17.7106 42.0802 15.7492 36.4945C14.734 36.2507 13.7369 35.9269 12.7653 35.523C6.32812 32.8593 1.76859 27.2554 0.0947018 20.5344C-0.16002 19.5119 0.0073685 17.6124 1.67398 15.8475C3.07495 14.3628 4.48684 14.0062 5.50209 14.3628C6.9722 14.8795 7.41979 16.6517 7.96198 18.0709C9.17373 21.2549 10.5529 23.2708 12.6853 25.2031C11.9247 20.8837 11.7391 16.6044 12.6088 12.8672C14.2209 5.91696 19.5045 1.12455 26.393 0.36402C33.3141 -0.400146 39.7622 3.20599 42.8189 9.55949C46.6543 17.5287 43.4921 27.5684 35.6212 32.419C32.157 34.5514 28.6454 35.9596 25.2103 36.6255C26.866 41.1924 27.7939 42.859 29.1076 45.65C29.2859 46.0321 29.4351 46.3487 29.5515 46.5961C30.5668 48.8013 29.2386 49.8966 28.3507 50.1877C25.2321 51.2029 23.6856 50.7699 22.5321 50.1113ZM28.176 9.05733C27.8958 9.05733 27.6229 9.07188 27.3573 9.10099C24.2387 9.44669 21.928 11.5973 21.1711 14.8577C20.3451 18.4165 20.9892 23.158 22.372 28.1979C25.0866 27.8813 27.9977 26.786 31.0071 24.9338C35.512 22.161 36.5309 16.7718 34.8934 13.373C33.3541 10.1781 30.5486 9.06096 28.1724 9.06096L28.176 9.05733Z" fill="#006E8A"/>
</g>
<defs>
<clipPath id="clip0_111_132">
<rect width="131" height="51.0027" fill="white"/>
</clipPath>
</defs>
</svg>
