<svg width="80" height="80" viewBox="0 0 80 80" fill="none" xmlns="http://www.w3.org/2000/svg">
<path d="M69.1717 32.5344C68.5178 32.6438 67.9341 33.0085 67.5491 33.5483C67.1641 34.088 67.0092 34.7586 67.1186 35.4125C67.3724 36.9285 67.5 38.463 67.4998 40C67.5058 46.7319 65.0316 53.23 60.5498 58.2532C57.7616 54.2128 53.841 51.087 49.2811 49.2688C51.7305 47.3396 53.5179 44.695 54.3946 41.7028C55.2714 38.7107 55.1939 35.5197 54.173 32.5736C53.1521 29.6275 51.2385 27.0728 48.6984 25.2647C46.1582 23.4566 43.1178 22.485 39.9998 22.485C36.8819 22.485 33.8414 23.4566 31.3013 25.2647C28.7611 27.0728 26.8476 29.6275 25.8267 32.5736C24.8058 35.5197 24.7283 38.7107 25.6051 41.7028C26.4818 44.695 28.2692 47.3396 30.7186 49.2688C26.1586 51.087 22.2381 54.2128 19.4498 58.2532C15.9333 54.2905 13.6363 49.3965 12.835 44.1595C12.0336 38.9226 12.7621 33.5656 14.9328 28.7327C17.1034 23.8999 20.6239 19.797 25.0708 16.9172C29.5178 14.0375 34.7019 12.5036 39.9998 12.5C41.5369 12.4998 43.0714 12.6273 44.5873 12.8813C45.2383 12.984 45.9035 12.8255 46.4382 12.4403C46.973 12.0551 47.334 11.4743 47.4427 10.8244C47.5515 10.1744 47.3992 9.50772 47.0189 8.96944C46.6387 8.43117 46.0613 8.0648 45.4123 7.95004C38.6231 6.8079 31.6465 7.85296 25.4899 10.9343C19.3334 14.0157 14.3153 18.9739 11.1604 25.0932C8.00548 31.2124 6.87688 38.1759 7.93758 44.9783C8.99827 51.7808 12.1934 58.0701 17.0615 62.9383C21.9297 67.8065 28.2191 71.0016 35.0215 72.0623C41.824 73.123 48.7875 71.9944 54.9067 68.8395C61.0259 65.6845 65.9842 60.6665 69.0655 54.5099C72.1469 48.3533 73.192 41.3768 72.0498 34.5875C71.9404 33.9336 71.5757 33.35 71.036 32.9649C70.4962 32.5799 69.8256 32.425 69.1717 32.5344ZM29.9998 37.5C29.9998 35.5222 30.5863 33.5888 31.6851 31.9443C32.784 30.2998 34.3457 29.0181 36.173 28.2612C38.0003 27.5044 40.0109 27.3063 41.9507 27.6922C43.8906 28.078 45.6724 29.0304 47.0709 30.429C48.4694 31.8275 49.4218 33.6093 49.8077 35.5491C50.1935 37.4889 49.9955 39.4996 49.2386 41.3269C48.4818 43.1541 47.2 44.7159 45.5555 45.8147C43.911 46.9135 41.9777 47.5 39.9998 47.5C37.3477 47.5 34.8041 46.4465 32.9288 44.5711C31.0534 42.6957 29.9998 40.1522 29.9998 37.5ZM23.1498 61.7188C24.9584 58.8903 27.4499 56.5626 30.3946 54.9502C33.3393 53.3378 36.6426 52.4927 39.9998 52.4927C43.3571 52.4927 46.6603 53.3378 49.6051 54.9502C52.5498 56.5626 55.0413 58.8903 56.8498 61.7188C52.0321 65.4656 46.103 67.4998 39.9998 67.4998C33.8966 67.4998 27.9675 65.4656 23.1498 61.7188ZM74.2686 14.2688L64.2686 24.2688C64.0364 24.5012 63.7607 24.6856 63.4572 24.8114C63.1537 24.9372 62.8284 25.002 62.4998 25.002C62.1713 25.002 61.846 24.9372 61.5425 24.8114C61.239 24.6856 60.9633 24.5012 60.7311 24.2688L55.7311 19.2688C55.4988 19.0365 55.3146 18.7608 55.1889 18.4573C55.0631 18.1538 54.9984 17.8285 54.9984 17.5C54.9984 17.1715 55.0631 16.8463 55.1889 16.5428C55.3146 16.2393 55.4988 15.9636 55.7311 15.7313C56.2002 15.2622 56.8364 14.9986 57.4998 14.9986C57.8283 14.9986 58.1536 15.0633 58.4571 15.1891C58.7606 15.3148 59.0363 15.499 59.2686 15.7313L62.4998 18.9657L70.7311 10.7313C70.9634 10.499 71.2391 10.3148 71.5426 10.1891C71.8461 10.0633 72.1713 9.99865 72.4998 9.99865C72.8283 9.99865 73.1536 10.0633 73.4571 10.1891C73.7606 10.3148 74.0363 10.499 74.2686 10.7313C74.5009 10.9636 74.6851 11.2393 74.8108 11.5428C74.9365 11.8463 75.0012 12.1715 75.0012 12.5C75.0012 12.8285 74.9365 13.1538 74.8108 13.4573C74.6851 13.7608 74.5009 14.0365 74.2686 14.2688Z" fill="black"/>
</svg>
