<svg width="48" height="48" viewBox="0 0 48 48" fill="none" xmlns="http://www.w3.org/2000/svg">
<path d="M39 6H34.5V4.5C34.5 4.10218 34.342 3.72064 34.0607 3.43934C33.7794 3.15804 33.3978 3 33 3C32.6022 3 32.2206 3.15804 31.9393 3.43934C31.658 3.72064 31.5 4.10218 31.5 4.5V6H16.5V4.5C16.5 4.10218 16.342 3.72064 16.0607 3.43934C15.7794 3.15804 15.3978 3 15 3C14.6022 3 14.2206 3.15804 13.9393 3.43934C13.658 3.72064 13.5 4.10218 13.5 4.5V6H9C8.20435 6 7.44129 6.31607 6.87868 6.87868C6.31607 7.44129 6 8.20435 6 9V39C6 39.7957 6.31607 40.5587 6.87868 41.1213C7.44129 41.6839 8.20435 42 9 42H39C39.7957 42 40.5587 41.6839 41.1213 41.1213C41.6839 40.5587 42 39.7957 42 39V9C42 8.20435 41.6839 7.44129 41.1213 6.87868C40.5587 6.31607 39.7957 6 39 6ZM39 39H9V9H13.5V10.5C13.5 10.8978 13.658 11.2794 13.9393 11.5607C14.2206 11.842 14.6022 12 15 12C15.3978 12 15.7794 11.842 16.0607 11.5607C16.342 11.2794 16.5 10.8978 16.5 10.5V9H31.5V10.5C31.5 10.8978 31.658 11.2794 31.9393 11.5607C32.2206 11.842 32.6022 12 33 12C33.3978 12 33.7794 11.842 34.0607 11.5607C34.342 11.2794 34.5 10.8978 34.5 10.5V9H39V39ZM28.5 16.5C27.6482 16.4995 26.8061 16.6809 26.0301 17.0321C25.254 17.3833 24.5619 17.8961 24 18.5363C23.1942 17.6225 22.1293 16.9757 20.9469 16.6819C19.7645 16.3882 18.5208 16.4613 17.381 16.8915C16.2412 17.3218 15.2593 18.0889 14.5661 19.0907C13.8728 20.0925 13.501 21.2817 13.5 22.5C13.5 29.3475 22.9275 34.14 23.3288 34.3425C23.5371 34.4468 23.767 34.5011 24 34.5011C24.233 34.5011 24.4629 34.4468 24.6712 34.3425C25.0725 34.14 34.5 29.3475 34.5 22.5C34.5 20.9087 33.8679 19.3826 32.7426 18.2574C31.6174 17.1321 30.0913 16.5 28.5 16.5ZM24 31.2994C21.4144 29.8387 16.5 26.2838 16.5 22.5C16.5 21.7044 16.8161 20.9413 17.3787 20.3787C17.9413 19.8161 18.7044 19.5 19.5 19.5C20.2956 19.5 21.0587 19.8161 21.6213 20.3787C22.1839 20.9413 22.5 21.7044 22.5 22.5C22.5 22.8978 22.658 23.2794 22.9393 23.5607C23.2206 23.842 23.6022 24 24 24C24.3978 24 24.7794 23.842 25.0607 23.5607C25.342 23.2794 25.5 22.8978 25.5 22.5C25.5 21.7044 25.8161 20.9413 26.3787 20.3787C26.9413 19.8161 27.7044 19.5 28.5 19.5C29.2956 19.5 30.0587 19.8161 30.6213 20.3787C31.1839 20.9413 31.5 21.7044 31.5 22.5C31.5 26.2856 26.5856 29.8406 24 31.2994Z" fill="black"/>
</svg>
