<svg width="80" height="80" viewBox="0 0 80 80" fill="none" xmlns="http://www.w3.org/2000/svg">
<path d="M65 12.5H53.7188C53.1976 10.3308 51.9636 8.39794 50.2128 7.01526C48.462 5.63258 46.2978 4.88 44.0688 4.88H35.9313C33.7022 4.88 31.5381 5.63258 29.7872 7.01526C28.0364 8.39794 26.8025 10.3308 26.2813 12.5H15C13.0109 12.5 11.1032 13.2902 9.6967 14.6967C8.29018 16.1032 7.5 18.0109 7.5 20V67.5C7.5 69.4891 8.29018 71.3968 9.6967 72.8033C11.1032 74.2098 13.0109 75 15 75H65C66.9891 75 68.8968 74.2098 70.3033 72.8033C71.7098 71.3968 72.5 69.4891 72.5 67.5V20C72.5 18.0109 71.7098 16.1032 70.3033 14.6967C68.8968 13.2902 66.9891 12.5 65 12.5ZM35.9313 9.88H44.0688C45.4571 9.88 46.7884 10.4313 47.7702 11.4131C48.7519 12.3948 49.3033 13.7261 49.3033 15.1144C49.3033 16.5026 48.7519 17.834 47.7702 18.8157C46.7884 19.7975 45.4571 20.3488 44.0688 20.3488H35.9313C34.5429 20.3488 33.2116 19.7975 32.2298 18.8157C31.2481 17.834 30.6968 16.5026 30.6968 15.1144C30.6968 13.7261 31.2481 12.3948 32.2298 11.4131C33.2116 10.4313 34.5429 9.88 35.9313 9.88ZM67.5 67.5C67.5 68.163 67.2366 68.7989 66.7678 69.2678C66.2989 69.7366 65.663 70 65 70H15C14.337 70 13.7011 69.7366 13.2322 69.2678C12.7634 68.7989 12.5 68.163 12.5 67.5V20C12.5 19.337 12.7634 18.7011 13.2322 18.2322C13.7011 17.7634 14.337 17.5 15 17.5H25.7531C25.6859 17.872 25.6486 18.2487 25.6413 18.6263C25.6451 21.4 26.7488 24.0589 28.7113 26.0214C30.6738 27.9839 33.3327 29.0876 36.1063 29.0913H43.8938C46.6673 29.0876 49.3263 27.9839 51.2888 26.0214C53.2513 24.0589 54.355 21.4 54.3588 18.6263C54.3514 18.2487 54.3142 17.872 54.2469 17.5H65C65.663 17.5 66.2989 17.7634 66.7678 18.2322C67.2366 18.7011 67.5 19.337 67.5 20V67.5ZM55 40C55 40.663 54.7366 41.2989 54.2678 41.7678C53.7989 42.2366 53.163 42.5 52.5 42.5H27.5C26.837 42.5 26.2011 42.2366 25.7322 41.7678C25.2634 41.2989 25 40.663 25 40C25 39.337 25.2634 38.7011 25.7322 38.2322C26.2011 37.7634 26.837 37.5 27.5 37.5H52.5C53.163 37.5 53.7989 37.7634 54.2678 38.2322C54.7366 38.7011 55 39.337 55 40ZM55 52.5C55 53.163 54.7366 53.7989 54.2678 54.2678C53.7989 54.7366 53.163 55 52.5 55H27.5C26.837 55 26.2011 54.7366 25.7322 54.2678C25.2634 53.7989 25 53.163 25 52.5C25 51.837 25.2634 51.2011 25.7322 50.7322C26.2011 50.2634 26.837 50 27.5 50H52.5C53.163 50 53.7989 50.2634 54.2678 50.7322C54.7366 51.2011 55 51.837 55 52.5Z" fill="black"/>
</svg>
