<svg width="80" height="80" viewBox="0 0 80 80" fill="none" xmlns="http://www.w3.org/2000/svg">
<path d="M73.4625 13.1187C73.0985 12.8409 72.6735 12.6537 72.2227 12.5728C71.7719 12.492 71.3083 12.5198 70.8703 12.6541L52.5859 18.2381L31.1453 5.36876C30.7615 5.13776 30.3231 5.0143 29.875 5.0103C29.4269 5.0063 28.9863 5.122 28.5984 5.34626L7.34844 17.5963C6.95966 17.8205 6.63712 18.1431 6.41338 18.5314C6.18965 18.9197 6.07197 19.3601 6.07219 19.8081V63.5594C6.07203 64.0089 6.18852 64.4505 6.4101 64.8417C6.63167 65.2329 6.95128 65.5604 7.33717 65.7929C7.72306 66.0254 8.16236 66.1551 8.6118 66.169C9.06125 66.1828 9.50734 66.0805 9.90625 65.8722L29.9 56.2L51.2937 69.0653C51.677 69.2934 52.1147 69.4145 52.5609 69.4156C52.9706 69.418 53.3742 69.3147 53.7344 69.1156L72.6094 60.4344C73.0144 60.2466 73.3576 59.9472 73.5984 59.5717C73.8392 59.1962 73.9682 58.7596 73.9703 58.3125V15.0844C73.9694 14.6327 73.8438 14.1901 73.6068 13.8054C73.3697 13.4207 73.031 13.1093 72.6281 12.9062L73.4625 13.1187ZM55 23.1031L67.5 19.275V51.7L55 56.4625V23.1031ZM30 11.7187L50 23.7375V57.4719L30 45.4531V11.7187ZM12.5 22.4031L25 16.0594V45.5594L12.5 50.7969V22.4031ZM55 62.9219L67.5 58.1594V58.4937L55 64.2125V62.9219Z" fill="black"/>
</svg>
