<svg width="48" height="48" viewBox="0 0 48 48" fill="none" xmlns="http://www.w3.org/2000/svg">
<path d="M18.0486 6.93769C17.9512 6.5536 18.0096 6.14654 18.2113 5.80542C18.4129 5.4643 18.7414 5.21684 19.1249 5.11707C22.3226 4.29236 25.6772 4.29236 28.8749 5.11707C29.2291 5.20775 29.5379 5.42466 29.7434 5.72705C29.9489 6.02943 30.0369 6.39646 29.9909 6.75915C29.9448 7.12185 29.7679 7.45523 29.4933 7.69665C29.2188 7.93808 28.8655 8.07091 28.4999 8.07019C28.3733 8.06953 28.2474 8.05315 28.1249 8.02144C25.4192 7.32285 22.5805 7.32285 19.8749 8.02144C19.6838 8.07041 19.4849 8.08122 19.2897 8.05324C19.0944 8.02526 18.9066 7.95904 18.737 7.85837C18.5673 7.7577 18.4192 7.62457 18.3011 7.46659C18.183 7.3086 18.0972 7.12887 18.0486 6.93769ZM6.253 20.6252C6.44284 20.6779 6.64121 20.6927 6.83678 20.6688C7.03235 20.6448 7.22128 20.5826 7.39279 20.4856C7.5643 20.3886 7.71502 20.2588 7.83634 20.1035C7.95766 19.9483 8.04721 19.7707 8.09987 19.5808C8.84722 16.889 10.2667 14.4314 12.2249 12.4389C12.4812 12.1514 12.6171 11.7762 12.6044 11.3912C12.5917 11.0061 12.4313 10.6407 12.1565 10.3707C11.8816 10.1007 11.5135 9.94684 11.1283 9.94092C10.7431 9.935 10.3704 10.0775 10.0874 10.3389C7.77398 12.6931 6.09652 15.5964 5.21237 18.7764C5.15929 18.9662 5.14411 19.1645 5.16768 19.3601C5.19125 19.5557 5.25312 19.7447 5.34975 19.9164C5.44638 20.088 5.57589 20.239 5.73087 20.3606C5.88585 20.4822 6.06327 20.5721 6.253 20.6252ZM28.1249 39.9789C25.4192 40.6775 22.5805 40.6775 19.8749 39.9789C19.4921 39.8863 19.0882 39.948 18.7505 40.1506C18.4127 40.3532 18.1682 40.6805 18.0697 41.0618C17.9713 41.4432 18.0267 41.8479 18.2241 42.1887C18.4216 42.5295 18.7451 42.779 19.1249 42.8833C22.3226 43.708 25.6772 43.708 28.8749 42.8833C29.2547 42.779 29.5782 42.5295 29.7756 42.1887C29.973 41.8479 30.0285 41.4432 29.93 41.0618C29.8315 40.6805 29.587 40.3532 29.2493 40.1506C28.9116 39.948 28.5077 39.8863 28.1249 39.9789ZM39.8999 19.5846C40.0063 19.968 40.2607 20.2934 40.607 20.4893C40.9534 20.6851 41.3633 20.7354 41.7467 20.6289C42.1301 20.5225 42.4556 20.2682 42.6514 19.9218C42.8473 19.5754 42.8975 19.1655 42.7911 18.7821C41.9064 15.6023 40.229 12.6992 37.9161 10.3446C37.7794 10.1986 37.6149 10.0814 37.4322 9.99989C37.2495 9.91841 37.0524 9.87429 36.8525 9.87012C36.6525 9.86595 36.4537 9.90181 36.2678 9.9756C36.0819 10.0494 35.9126 10.1596 35.7699 10.2998C35.6273 10.44 35.5141 10.6073 35.437 10.7918C35.3599 10.9764 35.3205 11.1745 35.3212 11.3746C35.3218 11.5746 35.3624 11.7724 35.4407 11.9565C35.5189 12.1406 35.6332 12.3072 35.7767 12.4464C37.7313 14.4395 39.1492 16.8953 39.898 19.5846H39.8999ZM42.7949 29.2202C41.8025 32.798 39.8063 36.0167 37.0424 38.4958C36.8714 38.6501 36.6672 38.763 36.4456 38.8257C36.224 38.8884 35.991 38.8992 35.7645 38.8573C35.5381 38.8154 35.3243 38.722 35.1398 38.5842C34.9553 38.4464 34.805 38.2679 34.7005 38.0627C33.6974 36.0864 32.1667 34.4265 30.2779 33.267C28.3891 32.1075 26.2161 31.4938 23.9999 31.4938C21.7836 31.4938 19.6106 32.1075 17.7219 33.267C15.8331 34.4265 14.3023 36.0864 13.2992 38.0627C13.1949 38.2678 13.0448 38.4461 12.8605 38.5838C12.6762 38.7216 12.4627 38.8151 12.2365 38.8572C12.0103 38.8992 11.7774 38.8887 11.556 38.8263C11.3345 38.764 11.1303 38.6516 10.9592 38.4977C8.1952 36.0172 6.19906 32.7972 5.20675 29.2183C5.10058 28.8349 5.15107 28.425 5.3471 28.0789C5.54313 27.7327 5.86866 27.4785 6.25206 27.3724C6.63547 27.2662 7.04534 27.3167 7.39152 27.5127C7.7377 27.7088 7.99183 28.0343 8.098 28.4177C8.76897 30.8417 9.98781 33.0793 11.6605 34.9577C13.3341 32.5302 15.6895 30.6531 18.4292 29.5633C16.9591 28.406 15.8862 26.8194 15.3598 25.024C14.8333 23.2286 14.8795 21.3138 15.4918 19.5459C16.1042 17.7779 17.2523 16.2448 18.7765 15.1597C20.3007 14.0746 22.1252 13.4915 23.9961 13.4915C25.8671 13.4915 27.6916 14.0746 29.2157 15.1597C30.7399 16.2448 31.888 17.7779 32.5004 19.5459C33.1128 21.3138 33.1589 23.2286 32.6325 25.024C32.106 26.8194 31.0331 28.406 29.563 29.5633C32.3027 30.6531 34.6581 32.5302 36.3317 34.9577C38.0044 33.0793 39.2233 30.8417 39.8942 28.4177C39.9469 28.2278 40.0365 28.0502 40.1578 27.895C40.2792 27.7398 40.4299 27.61 40.6014 27.513C40.7729 27.416 40.9618 27.3538 41.1574 27.3298C41.3529 27.3058 41.5513 27.3206 41.7411 27.3733C41.931 27.426 42.1086 27.5156 42.2638 27.6369C42.419 27.7582 42.5488 27.909 42.6458 28.0805C42.7428 28.2519 42.805 28.4409 42.829 28.6364C42.853 28.832 42.8382 29.0303 42.7855 29.2202H42.7949ZM23.9999 28.5002C25.1866 28.5002 26.3466 28.1483 27.3333 27.489C28.32 26.8297 29.089 25.8926 29.5432 24.7963C29.9973 23.6999 30.1161 22.4935 29.8846 21.3296C29.6531 20.1658 29.0816 19.0967 28.2425 18.2575C27.4034 17.4184 26.3343 16.847 25.1704 16.6155C24.0065 16.384 22.8001 16.5028 21.7038 16.9569C20.6074 17.411 19.6703 18.1801 19.0111 19.1668C18.3518 20.1535 17.9999 21.3135 17.9999 22.5002C17.9999 24.0915 18.632 25.6176 19.7572 26.7428C20.8825 27.868 22.4086 28.5002 23.9999 28.5002Z" fill="black"/>
</svg>
